<?xml version="1.0" encoding="UTF-8"?>
<svg id="Layer_1" data-name="Layer 1" xmlns="http://www.w3.org/2000/svg" viewBox="0 0 725.47 133.88">
  <defs>
    <style>
      .cls-1 {
        fill: #84c27e;
      }

      .cls-1, .cls-2, .cls-3, .cls-4, .cls-5, .cls-6, .cls-7 {
        stroke-width: 0px;
      }

      .cls-2 {
        fill: #f7e180;
      }

      .cls-3 {
        fill: #d3555b;
      }

      .cls-4 {
        fill: #bcc9c9;
      }

      .cls-5 {
        fill: #263035;
      }

      .cls-6 {
        fill: #84847e;
      }

      .cls-7 {
        fill: #2e72b8;
      }
    </style>
  </defs>
  <g>
    <polygon class="cls-5" points="539.21 7.74 538.24 7.74 519.4 7.74 519.4 26.55 519.4 27.94 519.4 46.36 519.4 47.36 519.4 66.18 519.4 84.99 519.4 85.99 519.4 104.8 539.21 104.8 539.21 85.99 539.21 84.99 539.21 66.18 539.21 47.36 539.21 46.36 539.21 27.94 539.21 27.55 559.02 27.55 559.02 7.74 539.21 7.74"/>
    <polygon class="cls-5" points="559.02 27.55 559.02 46.36 559.02 47.36 559.02 66.18 559.02 84.99 559.02 85.99 559.02 104.8 578.83 104.8 578.83 85.99 578.83 84.99 578.83 66.18 578.83 47.36 578.83 46.36 578.83 27.55 559.02 27.55"/>
  </g>
  <rect class="cls-1" x="580.44" y="7.74" width="16.6" height="19.81"/>
  <rect class="cls-2" x="598.65" y="26.55" width="19.81" height="19.81"/>
  <rect class="cls-6" x="598.65" y="46.36" width="19.81" height="19.81"/>
  <rect class="cls-7" x="598.65" y="66.18" width="19.81" height="19.81"/>
  <rect class="cls-3" x="598.65" y="84.99" width="19.81" height="19.81"/>
  <rect class="cls-4" x="23.75" y="45.36" width="19.81" height="19.81" transform="translate(-21.8 88.61) rotate(-89.68)"/>
  <path class="cls-5" d="m33.65,55.27v25.53h51.06v25.53H8.12v-51.06h25.53Zm51.06,0h-51.06v-25.53h51.06v25.53Z"/>
  <path class="cls-5" d="m110.24,106.33V29.74h76.59v76.59h-76.59Zm51.06-51.06h-25.53v25.53h25.53v-25.53Z"/>
  <path class="cls-5" d="m212.35,106.33V29.74h25.53v51.06h25.53v25.53h-51.06Z"/>
  <path class="cls-5" d="m288.94,106.33V29.74h76.59v76.59h-76.59Zm51.06-51.06h-25.53v25.53h25.53v-25.53Z"/>
  <path class="cls-5" d="m416.58,55.27v51.06h-25.53V29.74h51.06v25.53h-25.53Z"/>
  <path class="cls-5" d="m493.17,29.74v76.59h-25.53V29.74h25.53Z"/>
  <path class="cls-5" d="m717.35,24.02v76.59h-25.53v-51.06h-25.53v25.53h-25.53V24.02h76.59Zm-76.59,76.59h51.06v25.53h-51.06v-25.53Z"/>
</svg>